<svg width="305" height="293" viewBox="0 0 305 293" fill="none" xmlns="http://www.w3.org/2000/svg">
<g filter="url(#filter0_d)">
<path d="M15.2001 66.2786C6.40012 70.6786 1.20012 79.2786 0.300123 91.1786C-0.799877 105.379 5.30012 120.879 15.9001 131.079C23.8001 138.579 31.3001 141.979 40.8001 142.479C47.1001 142.879 48.7001 142.579 53.6001 140.179C69.4001 132.479 73.7001 109.579 63.3001 88.8786C59.1001 80.4786 50.1001 71.3786 42.2001 67.4786C36.8001 64.7786 34.1001 64.0786 28.0001 63.8786C21.5001 63.5786 19.8001 63.8786 15.2001 66.2786Z" fill="#FA8734"/>
<path d="M90.3 0.578781C69.2 5.97878 60.8 35.1788 73.1 60.1788C78.9 72.0788 90.6 81.1788 101.5 82.4788C111.8 83.5788 123.2 76.7788 128.2 66.5788C133.3 55.8788 134.2 45.6788 131 33.1788C128.6 23.8788 125.4 18.0788 118.7 10.9788C110.8 2.57878 99.2 -1.62122 90.3 0.578781Z" fill="#FA8734"/>
<path d="M253.8 65.5786C246.6 68.3786 242.6 71.1786 236.8 77.4786C217.7 98.1786 218.5 130.479 238.4 140.179C243.3 142.579 244.9 142.879 251.2 142.479C260.7 141.979 268.2 138.579 276.1 131.079C286.7 120.879 292.8 105.379 291.7 91.1786C290.4 74.1786 280.1 63.5786 265.1 63.6786C261.2 63.7786 256.6 64.4786 253.8 65.5786Z" fill="#FA8734"/>
<path d="M189 0.978981C180.3 3.37897 171.4 10.979 165.7 20.779C162.4 26.279 159 39.179 159 45.779C159 62.979 168 77.579 180.8 81.279C207.8 89.179 233.5 51.079 221.9 20.179C216.3 5.27898 202.5 -2.82102 189 0.978981Z" fill="#FA8734"/>
<path d="M129.5 94.1788C94.1 101.979 69 133.279 69 169.679C69 199.379 85.8 226.179 112.5 239.179C122.2 243.879 129.8 245.679 142 246.379C159.1 247.279 174.1 243.379 187.8 234.479L194.2 230.279L197.6 233.979C200.3 236.879 201 238.479 201 241.879C201.1 244.279 201.9 247.579 202.8 249.379C203.7 251.079 210.4 258.579 217.7 266.079C228.4 276.979 231.7 279.779 235 280.679C243.7 282.979 252.8 276.979 253.7 268.279C254 265.879 254 262.579 253.6 261.179C252.8 258.179 227.8 231.079 223.8 229.079C222.3 228.279 219.1 227.679 216.8 227.679C213 227.679 211.9 227.179 208.6 223.779L204.8 219.879L208.5 214.979C217.5 203.179 223 185.979 223 169.679C223 126.579 188.6 92.3788 145.5 92.7788C140 92.8788 132.8 93.4788 129.5 94.1788ZM160.5 125.679C180.1 132.379 192 149.179 192 170.179C192 195.879 172 215.679 146 215.679C120 215.679 100 195.879 100 170.179C100 149.579 111.3 133.179 130.5 125.979C138.6 122.979 152.2 122.879 160.5 125.679Z" fill="#FA8734"/>
</g>
<defs>
<filter id="filter0_d" x="0.172852" y="0" width="304.655" height="292.173" filterUnits="userSpaceOnUse" color-interpolation-filters="sRGB">
<feFlood flood-opacity="0" result="BackgroundImageFix"/>
<feColorMatrix in="SourceAlpha" type="matrix" values="0 0 0 0 0 0 0 0 0 0 0 0 0 0 0 0 0 0 127 0"/>
<feOffset dx="8" dy="6"/>
<feGaussianBlur stdDeviation="2.5"/>
<feColorMatrix type="matrix" values="0 0 0 0 0 0 0 0 0 0 0 0 0 0 0 0 0 0 0.25 0"/>
<feBlend mode="normal" in2="BackgroundImageFix" result="effect1_dropShadow"/>
<feBlend mode="normal" in="SourceGraphic" in2="effect1_dropShadow" result="shape"/>
</filter>
</defs>
</svg>
